<?xml version="1.0" encoding="utf-8"?>
<!-- Generator: Adobe Illustrator 26.1.0, SVG Export Plug-In . SVG Version: 6.00 Build 0)  -->
<svg version="1.1" id="Layer_1" xmlns="http://www.w3.org/2000/svg" xmlns:xlink="http://www.w3.org/1999/xlink" x="0px" y="0px"
	 viewBox="0 0 398 135" style="enable-background:new 0 0 398 135;" xml:space="preserve">
<style type="text/css">
	.st0{fill:#F4B400;}
	.st1{fill:#4285F4;}
	.st2{fill:#0F9D58;}
	.st3{fill:#DB4437;}
</style>
<path id="yellow" class="st0" d="M160.5,73.2c0-9.1,2.1-16.4,6.2-21.8c4.1-5.4,9.7-8.1,16.8-8.1c4.9,0,9.1,1.6,12.5,4.7
	c0.6,0.6,1.7,0.1,1.7-0.8V20.7c0-0.6,0.4-1,1-1h13.7c0.6,0,1,0.4,1,1v81.2c0,0.6-0.4,1-1,1h-12.3c-0.5,0-0.9-0.4-1-0.9l-0.4-3.1
	c-0.1-0.8-1.1-1.2-1.7-0.6c-3.7,3.8-8.2,5.7-13.6,5.7c-6.9,0-12.4-2.7-16.6-8.2C162.6,90.4,160.5,82.9,160.5,73.2z M176.2,74.3
	c0,5.5,1,9.7,2.9,12.7c1.9,2.9,4.7,4.4,8.3,4.4c4.8,0,8.1-2,10.1-5.9c0.1-0.1,0.1-0.3,0.1-0.5V62.2c0-0.2,0-0.3-0.1-0.5
	c-2-4-5.3-5.9-10-5.9C180,55.8,176.2,62,176.2,74.3z"/>
<g id="blue">
	<path class="st1" d="M27,101.9V25c0-0.6,0.4-1,1-1h23.3c6.9,0,13.1,1.6,18.6,4.7c5.5,3.1,9.7,7.6,12.8,13.3
		c3.1,5.8,4.6,12.3,4.6,19.6v3.6c0,7.3-1.5,13.9-4.5,19.6c-3,5.7-7.3,10.1-12.8,13.3c-5.5,3.1-11.7,4.7-18.6,4.8H28
		C27.4,102.9,27,102.5,27,101.9z M43.2,38.2v50.7c0,0.6,0.4,1,1,1h6.9c6.4,0,11.2-2.1,14.6-6.2c3.4-4.2,5.1-10.1,5.1-17.8v-4.2
		c0-8-1.7-14.1-5-18.2c-3.3-4.1-8.2-6.2-14.6-6.2h-7C43.7,37.2,43.2,37.6,43.2,38.2z"/>
	<path class="st1" d="M254.9,104c-8.6,0-15.6-2.6-21-7.9c-5.4-5.3-8.1-12.3-8.1-21.1v-1.5c0-5.9,1.1-11.2,3.4-15.8
		c2.3-4.6,5.5-8.2,9.7-10.7c4.2-2.5,8.9-3.8,14.3-3.8c8,0,14.3,2.5,18.9,7.6c4.6,5.1,6.9,12.2,6.9,21.5v5.4c0,0.6-0.4,1-1,1h-35.2
		c-0.6,0-1.1,0.6-1,1.2c0.6,3.3,2.1,5.9,4.4,8c2.5,2.3,5.8,3.5,9.7,3.5c5.6,0,10.1-1.9,13.4-5.7c0.4-0.5,1.1-0.5,1.5,0l6.4,7.1
		c0.3,0.4,0.3,0.9,0.1,1.3c-2.3,3-5.3,5.4-9.1,7.1C264.3,103.1,259.8,104,254.9,104z M253.2,55.8c-3.1,0-5.6,1.1-7.6,3.2
		c-1.7,1.9-2.9,4.5-3.5,7.8c-0.1,0.6,0.3,1.2,1,1.2h20.6v-1.3c-0.1-3.5-1-6.2-2.8-8.1C259,56.8,256.5,55.8,253.2,55.8z"/>
</g>
<path id="geen" class="st2" d="M290.3,29.1c0-2.3,0.8-4.3,2.4-5.8c1.6-1.5,3.7-2.3,6.4-2.3c2.7,0,4.8,0.8,6.4,2.3
	c1.6,1.5,2.4,3.5,2.4,5.8c0,2.4-0.8,4.3-2.4,5.9c-1.6,1.5-3.7,2.3-6.4,2.3s-4.8-0.8-6.4-2.3C291.1,33.4,290.3,31.5,290.3,29.1z
	 M305.9,102.9h-13.7c-0.6,0-1-0.4-1-1V45.3c0-0.6,0.4-1,1-1h13.7c0.6,0,1,0.4,1,1v56.6C306.9,102.5,306.5,102.9,305.9,102.9z"/>
<g id="red">
	<path class="st3" d="M127.5,104c-8.6,0-15.6-2.6-21-7.9c-5.4-5.3-8.1-12.3-8.1-21.1v-1.5c0-5.9,1.1-11.2,3.4-15.8
		c2.3-4.6,5.5-8.2,9.7-10.7c4.2-2.5,8.9-3.8,14.3-3.8c8,0,14.3,2.5,18.9,7.6c4.6,5.1,6.9,12.2,6.9,21.5v5.4c0,0.6-0.4,1-1,1h-35.2
		c-0.6,0-1.1,0.6-1,1.2c0.6,3.3,2.1,5.9,4.4,8c2.5,2.3,5.8,3.5,9.7,3.5c5.6,0,10.1-1.9,13.4-5.7c0.4-0.5,1.1-0.5,1.5,0l6.4,7.1
		c0.3,0.4,0.3,0.9,0.1,1.3c-2.3,3-5.3,5.4-9.1,7.1C136.8,103.1,132.4,104,127.5,104z M125.7,55.8c-3.1,0-5.6,1.1-7.6,3.2
		c-1.7,1.9-2.9,4.5-3.5,7.8c-0.1,0.6,0.3,1.2,1,1.2h20.6v-1.3c-0.1-3.5-1-6.2-2.8-8.1C131.6,56.8,129.1,55.8,125.7,55.8z"/>
	<path class="st3" d="M356,102.4c-0.4-0.8-0.7-1.8-0.9-2.9c-0.2-0.8-1.1-1-1.7-0.5c-3.6,3.3-8.1,5-13.5,5c-5.7,0-10.5-1.7-14.3-5
		c-3.8-3.3-5.7-7.5-5.7-12.6c0-6.2,2.3-11,6.9-14.3c4.6-3.3,11.3-5,20-5h6.2c0.6,0,1-0.4,1-1v-2.4c0-2.7-0.7-4.9-2.1-6.5
		c-1.4-1.6-3.6-2.4-6.6-2.4c-2.6,0-4.7,0.6-6.2,1.9c-1.3,1.1-2,2.5-2.2,4.3c0,0.5-0.5,0.9-1,0.9h-13.7c-0.6,0-1-0.5-1-1
		c0.2-3,1.2-5.8,3.1-8.4c2.1-2.9,5.1-5.2,8.9-6.8c3.8-1.6,8.1-2.5,12.9-2.5c7.2,0,13,1.8,17.2,5.4c4.2,3.6,6.4,8.7,6.4,15.3v25.4
		c0,5.6,0.8,9.8,2.3,12.6v0.9h-15.2C356.5,102.9,356.1,102.7,356,102.4z M343.3,92c2.3,0,4.4-0.5,6.4-1.5c1.9-1,3.3-2.3,4.2-3.9
		c0.1-0.2,0.1-0.3,0.1-0.5v-8.8c0-0.6-0.4-1-1-1h-4.9c-7.8,0-12,2.7-12.5,8.1l-0.1,0.9c0,2,0.7,3.6,2.1,4.8
		C339,91.4,340.9,92,343.3,92z"/>
</g>
</svg>
